<svg viewBox="0 27.16192891472868 103.56002354725787 93.27303891472869" version="1.1" xmlns:xlink="http://www.w3.org/1999/xlink" xmlns="http://www.w3.org/2000/svg" style="max-height: 500px" width="103.56002354725787" height="93.27303891472869">
<g>
<path fill="#ffffff" d="M -28.3468 -56.69362 L -28.3468 207.78604 L 850.4043 207.78604 L 850.4043 -56.69362 Z M 850.4043 207.78604" transform="matrix(.5,0,0,-.5,14.167613,103.875728)"/>
<path d="M 0 0 L 141.73404 0 L 70.867 122.74562 Z" stroke="#e9b0d6" fill="none" stroke-linejoin="miter" stroke-miterlimit="10" stroke-linecap="butt" stroke-width="8.96649" transform="matrix(.5,0,0,-.5,14.167613,103.875728)"/>
<path d="M 0 0 L 70.867 40.91505" stroke="#e9b0d6" fill="none" stroke-linejoin="miter" stroke-miterlimit="10" stroke-linecap="butt" stroke-width="8.96649" transform="matrix(.5,0,0,-.5,14.167613,103.875728)"/>
<path d="M 141.73404 0 L 70.867 40.91505" stroke="#e9b0d6" fill="none" stroke-linejoin="miter" stroke-miterlimit="10" stroke-linecap="butt" stroke-width="8.96649" transform="matrix(.5,0,0,-.5,14.167613,103.875728)"/>
<path d="M 70.867 122.74562 L 70.867 40.91505" stroke="#e9b0d6" fill="none" stroke-linejoin="miter" stroke-miterlimit="10" stroke-linecap="butt" stroke-width="8.96649" transform="matrix(.5,0,0,-.5,14.167613,103.875728)"/>
<path fill="#e9b0d6" d="M 10.95905 0 C 10.95905 6.05258 6.05258 10.95905 0 10.95905 C -6.05258 10.95905 -10.95905 6.05258 -10.95905 0 C -10.95905 -6.05258 -6.05258 -10.95905 0 -10.95905 C 6.05258 -10.95905 10.95905 -6.05258 10.95905 0 Z M 0 0" transform="matrix(.5,0,0,-.5,14.167613,103.875728)"/>
<path fill="#e9b0d6" d="M 152.69309 0 C 152.69309 6.05258 147.78664 10.95905 141.73404 10.95905 C 135.68146 10.95905 130.775 6.05258 130.775 0 C 130.775 -6.05258 135.68146 -10.95905 141.73404 -10.95905 C 147.78664 -10.95905 152.69309 -6.05258 152.69309 0 Z M 141.73404 0" transform="matrix(.5,0,0,-.5,14.167613,103.875728)"/>
<path fill="#e9b0d6" d="M 81.82605 122.74562 C 81.82605 128.7982 76.9196 133.70467 70.867 133.70467 C 64.81442 133.70467 59.90796 128.7982 59.90796 122.74562 C 59.90796 116.69302 64.81442 111.78658 70.867 111.78658 C 76.9196 111.78658 81.82605 116.69302 81.82605 122.74562 Z M 70.867 122.74562" transform="matrix(.5,0,0,-.5,14.167613,103.875728)"/>
<path fill="#e9b0d6" d="M 81.82605 40.91505 C 81.82605 46.96765 76.9196 51.8741 70.867 51.8741 C 64.81442 51.8741 59.90796 46.96765 59.90796 40.91505 C 59.90796 34.86246 64.81442 29.95601 70.867 29.95601 C 76.9196 29.95601 81.82605 34.86246 81.82605 40.91505 Z M 70.867 40.91505" transform="matrix(.5,0,0,-.5,14.167613,103.875728)"/>
<symbol id="font_0_2a">
<path d="M 0 .7631836 L .40234376 .7631836 C .4609375 .7631836 .51171877 .75683596 .5546875 .7441406 C .59765627 .7314453 .6333008 .7130534 .6616211 .68896487 C .6899414 .66520187 .7109375 .6360677 .7246094 .6015625 C .73860678 .5670573 .74560549 .52815756 .74560549 .48486329 C .74560549 .4441732 .73876956 .40657554 .72509768 .3720703 C .7114258 .3375651 .6904297 .3076172 .6621094 .28222657 C .63411459 .25716148 .5986328 .23746746 .55566409 .22314453 C .5126953 .20914714 .46191407 .20214844 .4033203 .20214844 L .15478516 .20263672 L .15478516 0 L 0 0 L 0 .7631836 M .40625 .33642579 C .43554688 .33642579 .46110026 .33984376 .48291017 .3466797 C .5050456 .35384117 .5234375 .36376954 .53808596 .37646485 C .5530599 .3894857 .5641276 .4051107 .57128909 .42333985 C .57877609 .44189454 .58251956 .46240235 .58251956 .48486329 C .58251956 .53011068 .5677083 .5652669 .53808596 .59033206 C .50878909 .61572268 .46484376 .62841799 .40625 .62841799 L .15478516 .62841799 L .15478516 .33642579 L .40625 .33642579 Z"/>
</symbol>
<symbol id="font_0_b2">
<path d="M .35839845 .7631836 L .52246096 .7631836 L .89160159 0 L .7290039 0 L .66796877 .12841797 L .22216797 .12841797 L .16308594 0 L 0 0 L .35839845 .7631836 M .6069336 .25585938 L .44189454 .60253909 L .28125 .25585938 L .6069336 .25585938 Z"/>
</symbol>
<symbol id="font_0_2f">
<path d="M 0 .39648438 C 0 .45084635 .010253906 .50146487 .030761719 .54833987 C .05126953 .59554037 .08089193 .63639327 .119628909 .67089846 C .1586914 .7057292 .20621746 .73307296 .26220704 .7529297 C .31852214 .77278646 .38216148 .78271487 .453125 .78271487 C .5152995 .78271487 .5722656 .7763672 .62402346 .7636719 C .67610678 .75130209 .7244466 .7322591 .76904299 .70654299 L .6977539 .58935549 C .68440756 .59814456 .6689453 .60595706 .6513672 .61279299 C .63411459 .6196289 .6155599 .6253255 .5957031 .6298828 C .5761719 .6347656 .55582687 .6385091 .53466799 .6411133 C .51383468 .64371749 .49316407 .64501956 .47265626 .64501956 C .4231771 .64501956 .379069 .63883468 .34033204 .62646487 C .30159507 .6144206 .26888023 .59733077 .2421875 .5751953 C .21582031 .55338546 .19563802 .52718099 .18164063 .49658204 C .16796875 .4663086 .16113281 .43294273 .16113281 .39648438 C .16113281 .35872398 .16829427 .324056 .18261719 .29248048 C .19694011 .26090495 .21761067 .2335612 .2446289 .21044922 C .27197267 .18766277 .30517579 .16975911 .34423829 .15673828 C .3836263 .14404297 .4280599 .13769531 .47753907 .13769531 C .5 .13769531 .52229818 .13932292 .5444336 .14257813 C .56656906 .14583333 .5878906 .15022786 .60839846 .15576172 C .62923178 .1616211 .6492513 .16845703 .66845706 .17626953 C .6876628 .18440755 .7055664 .19319661 .72216799 .20263672 L .79345706 .08544922 C .75179037 .05875651 .7036133 .037760419 .6489258 .022460938 C .5942383 .007486979 .5361328 0 .47460938 0 C .39615885 0 .3273112 .0100911459 .2680664 .030273438 C .20882161 .05078125 .15934246 .07877604 .119628909 .11425781 C .07991537 .15006511 .04996745 .1920573 .029785157 .24023438 C .009928386 .28873698 0 .3408203 0 .39648438 Z"/>
</symbol>
<symbol id="font_0_7">
<path d="M .08251953 .23779297 C .110188808 .22216797 .1381836 .20800781 .1665039 .1953125 C .19514974 .1829427 .22477214 .17236328 .2553711 .16357422 C .28597007 .15511067 .31803385 .14860027 .3515625 .14404297 C .38541667 .13948567 .42138673 .13720703 .45947267 .13720703 C .5053711 .13720703 .5444336 .14013672 .57666018 .1459961 C .6088867 .15218099 .6350911 .16048177 .65527346 .17089844 C .67578127 .18164063 .69059249 .19433594 .69970706 .20898438 C .70914718 .22363281 .7138672 .23958333 .7138672 .25683595 C .7138672 .28450523 .7023112 .3063151 .6791992 .32226563 C .6560872 .33854167 .6204427 .3466797 .5722656 .3466797 C .55110678 .3466797 .5288086 .34521485 .5053711 .34228517 C .4819336 .339681 .45817057 .3367513 .43408204 .3334961 C .410319 .33024089 .38671876 .32714845 .36328126 .32421876 C .34016929 .3216146 .31835938 .3203125 .29785157 .3203125 C .26367188 .3203125 .23079427 .32470704 .19921875 .3334961 C .16796875 .34228517 .14013672 .35546876 .115722659 .37304688 C .09163412 .390625 .07242838 .41259767 .05810547 .43896485 C .04378255 .46533204 .036621095 .49609376 .036621095 .53125 C .036621095 .5520833 .03938802 .5727539 .044921876 .5932617 C .05078125 .61376956 .059895833 .6333008 .072265628 .65185549 C .08496094 .67073568 .10123698 .68815109 .12109375 .70410159 C .14095052 .7203776 .1648763 .734375 .1928711 .74609377 C .2211914 .7578125 .2537435 .76692709 .29052735 .7734375 C .32763673 .78027346 .36979167 .7836914 .4169922 .7836914 C .45117188 .7836914 .4855143 .7817383 .52001956 .77783206 C .5545247 .7742513 .5880534 .76904299 .62060549 .76220706 C .6534831 .7553711 .6850586 .7470703 .71533206 .7373047 C .74560549 .72786459 .773763 .71728518 .7998047 .7055664 L .7319336 .5805664 C .7104492 .59000656 .6873372 .5986328 .66259768 .6064453 C .6378581 .6145833 .6119792 .62158206 .58496096 .6274414 C .5579427 .6333008 .52994796 .6378581 .50097659 .6411133 C .47233073 .64469406 .44303385 .6464844 .41308595 .6464844 C .37044273 .6464844 .33528648 .6433919 .3076172 .63720706 C .28027345 .63102218 .25846354 .6230469 .2421875 .61328127 C .22591146 .6038411 .21451824 .59309896 .20800781 .5810547 C .20182292 .56933596 .19873047 .5576172 .19873047 .54589846 C .19873047 .523112 .20898438 .50439456 .22949219 .4897461 C .25 .4754232 .28125 .46826173 .3232422 .46826173 C .34016929 .46826173 .35953776 .46940104 .38134767 .4716797 C .40348307 .47428385 .42659507 .47705079 .4506836 .47998048 C .47509767 .48291017 .49983726 .4855143 .52490237 .48779298 C .55029299 .49039714 .5748698 .49169923 .5986328 .49169923 C .6435547 .49169923 .68326827 .48665367 .71777346 .4765625 C .7526042 .46647135 .7817383 .4519857 .8051758 .43310548 C .8286133 .41455079 .8463542 .3919271 .85839846 .36523438 C .8704427 .3388672 .87646487 .30924479 .87646487 .2763672 C .87646487 .23242188 .86621096 .19319661 .8457031 .1586914 C .8255208 .12451172 .7965495 .09554037 .75878909 .071777347 C .7213542 .048339845 .67610678 .030436198 .6230469 .018066407 C .569987 .0060221354 .51090499 0 .44580079 0 C .40283204 0 .36083985 .002766927 .31982423 .008300781 C .2788086 .013509114 .23942058 .020996094 .20166016 .030761719 C .16422527 .040852865 .12841797 .052734376 .09423828 .06640625 C .060384115 .08040365 .028971354 .095703128 0 .11230469 L .08251953 .23779297 Z"/>
</symbol>





</g>
</svg>